<?xml version="1.0" encoding="UTF-8" standalone="no"?>
<!-- Created with Inkscape (http://www.inkscape.org/) -->

<svg
   xmlns:dc="http://purl.org/dc/elements/1.1/"
   xmlns:cc="http://creativecommons.org/ns#"
   xmlns:rdf="http://www.w3.org/1999/02/22-rdf-syntax-ns#"
   xmlns:svg="http://www.w3.org/2000/svg"
   xmlns="http://www.w3.org/2000/svg"
   xmlns:sodipodi="http://sodipodi.sourceforge.net/DTD/sodipodi-0.dtd"
   xmlns:inkscape="http://www.inkscape.org/namespaces/inkscape"
   width="170.09621mm"
   height="56.449505mm"
   viewBox="0 0 170.09621 56.449505"
   version="1.1"
   id="svg8"
   inkscape:version="0.92.4 (5da689c313, 2019-01-14)"
   sodipodi:docname="horizontal.svg">
  <defs
     id="defs2" />
  <sodipodi:namedview
     id="base"
     pagecolor="#ffffff"
     bordercolor="#666666"
     borderopacity="1.0"
     inkscape:pageopacity="0.0"
     inkscape:pageshadow="2"
     inkscape:zoom="0.5"
     inkscape:cx="972.81151"
     inkscape:cy="-10.882615"
     inkscape:document-units="mm"
     inkscape:current-layer="layer1"
     showgrid="false"
     inkscape:window-width="1829"
     inkscape:window-height="1051"
     inkscape:window-x="-9"
     inkscape:window-y="-9"
     inkscape:window-maximized="1"
     inkscape:snap-nodes="false"
     fit-margin-top="0"
     fit-margin-left="0"
     fit-margin-right="0"
     fit-margin-bottom="0" />
  <metadata
     id="metadata5">
    <rdf:RDF>
      <cc:Work
         rdf:about="">
        <dc:format>image/svg+xml</dc:format>
        <dc:type
           rdf:resource="http://purl.org/dc/dcmitype/StillImage" />
        <dc:title></dc:title>
      </cc:Work>
    </rdf:RDF>
  </metadata>
  <g
     inkscape:label="image"
     inkscape:groupmode="layer"
     id="layer1"
     transform="translate(507.35623,-284.55336)">
    <path
       id="path188-2-1"
       style="display:inline;fill:none;stroke:#000000;stroke-width:1;stroke-linecap:butt;stroke-linejoin:miter;stroke-miterlimit:4;stroke-dasharray:none;stroke-opacity:1"
       d="m -468.79739,323.00509 5.19441,2.84467 5.60271,-2.84467 m 36.34912,-23.50233 1.5311,-13.41301 -8.26791,9.46096 -4.69532,-4.19156 -2.47979,14.32939 z m -13.91192,6.18579 13.91192,-6.18579 -7.55338,8.26337 -8.57409,1.31736 z m 0,0 2.47979,-14.3294 -14.14713,22.65034 v 0 l 11.66734,-8.32094 -11.66734,8.32094 -10.76986,8.9956 14.65896,-7.64625 z m -2.21555,3.39494 c 12.75767,18.42724 -17.78036,29.47633 -20.22165,13.9216 m -8.15452,12.06609 2.75596,-4.91011 2.75596,4.91011 -2.75596,4.91013 z m -38.99172,-35.56842 -1.53109,-13.41301 8.26788,9.46096 4.69534,-4.19156 2.47979,14.3294 z m 13.91192,6.18579 -13.91192,-6.18579 7.55337,8.26337 8.5741,1.31736 z m 0,0 -2.47979,-14.3294 14.14713,22.65034 v 0 l -11.66734,-8.32094 11.66734,8.32094 10.76986,8.9956 -14.65897,-7.64625 z m 2.21555,3.39494 c -12.75768,18.42724 17.78035,29.47633 20.22165,13.9216"
       inkscape:connector-curvature="0"
       inkscape:export-filename="C:\Users\maner\OneDrive\Documentos\Strix\Concept\Logo\logo\horizontal.png"
       inkscape:export-xdpi="96"
       inkscape:export-ydpi="96" />
    <g
       aria-label="DEVELOPMENT"
       transform="matrix(0.26458333,0,0,0.26458333,-475.99682,150.17056)"
       style="font-style:normal;font-weight:normal;font-size:40px;line-height:1.25;font-family:sans-serif;letter-spacing:0px;word-spacing:0px;display:inline;fill:#000000;fill-opacity:1;stroke:#000000;stroke-width:1.51181102;stroke-miterlimit:4;stroke-dasharray:none;stroke-opacity:1"
       id="flowRoot4544-3-16"
       inkscape:export-filename="C:\Users\maner\OneDrive\Documentos\Strix\Concept\Logo\logo\horizontal.png"
       inkscape:export-xdpi="96"
       inkscape:export-ydpi="96">
      <path
         id="path4839"
         style="font-style:normal;font-variant:normal;font-weight:500;font-stretch:normal;font-size:32px;font-family:Megrim;-inkscape-font-specification:'Megrim Medium';letter-spacing:3px;stroke:#000000;stroke-width:1.51181102;stroke-miterlimit:4;stroke-dasharray:none;stroke-opacity:1"
         d="m 497.77492,696.61274 v 0.96 h -7.52 v 21.44 h -0.96 v -21.44 h -7.52 v -0.96 z m -34.191,21.44 h 9.92 l -11.456,-19.808 v 20.768 h -0.96 v -22.4 h 1.12 l 11.968,20.704 v -20.704 h 0.96 v 22.4 h -11.552 z m -12.4455,-10.752 h -9.504 l 9.792,-9.728 h -10.816 v 20.48 h 12.416 v 0.96 h -13.376 v -22.4 h 14.112 l -9.792,9.728 h 7.168 z m -34.4235,10.752 h 12.608 v -19.168 l -7.2,15.424 -7.2,-15.456 v 20.16 l -0.96,-0.032 v -22.4 h 0.96 l 7.2,15.456 7.2,-15.424 0.96,-0.032 v 22.432 l -13.568,-0.032 z m -14.6285,-9.792 -0.48,-0.832 1.792,-1.024 q 2.208,-1.216 2.208,-3.872 0,-4.96 -7.552,-4.96 h -2.944 v 21.44 h -0.96 v -22.4 h 3.904 q 4.224,0 6.368,1.568 2.144,1.536 2.144,4.352 0,3.2 -2.688,4.704 z m -18.3005,8.672 q -1.76,2.4 -5.696,2.4 -3.936,0 -5.696,-2.4 -1.76,-2.432 -1.76,-7.552 v -3.136 q 0,-5.12 1.76,-7.52 1.76,-2.432 5.696,-2.432 3.936,0 5.696,2.432 1.76,2.4 1.76,7.52 v 3.136 q 0,5.12 -1.76,7.552 z m -3.008,-19.264 q -1.12,-0.416 -2.688,-0.416 -1.568,0 -2.688,0.416 -1.12,0.384 -2.016,1.344 -0.896,0.96 -1.344,2.784 -0.448,1.792 -0.448,4.448 v 3.136 q 0,2.656 0.448,4.48 0.448,1.792 1.344,2.752 0.896,0.96 2.016,1.376 1.12,0.384 2.688,0.384 1.568,0 2.688,-0.384 1.12,-0.416 2.016,-1.376 0.896,-0.96 1.344,-2.752 0.448,-1.824 0.448,-4.48 v -3.136 q 0,-2.656 -0.448,-4.448 -0.448,-1.824 -1.344,-2.784 -0.896,-0.96 -2.016,-1.344 z m -16.064,20.384 v 0.96 h -13.376 v -22.4 h 0.96 v 21.44 z m -23.3255,-10.752 h -9.504 l 9.792,-9.728 h -10.816 v 20.48 h 12.416 v 0.96 h -13.376 v -22.4 h 14.112 l -9.792,9.728 h 7.168 z m -31.3495,-10.688 h 13.12 l -8.16,22.432 -8.16,-22.432 h 1.024 l 7.136,19.616 6.784,-18.656 h -11.744 z m -10.5255,10.688 h -9.504 l 9.792,-9.728 h -10.816 v 20.48 h 12.416 v 0.96 h -13.376 v -22.4 h 14.112 l -9.792,9.728 h 7.168 z m -30.416,11.712 h -3.072 v -22.4 h 3.072 q 4.608,0 7.808,3.392 3.2,3.392 3.2,7.808 0,4.416 -3.2,7.808 -3.2,3.392 -7.808,3.392 z m 0,-0.96 q 4.192,0 7.104,-3.072 2.944,-3.104 2.944,-7.168 0,-4.064 -2.944,-7.136 -2.912,-3.104 -7.104,-3.104 h -2.112 v 20.48 z m 253.80797,-51.64098 h -12.53334 l -18.53333,-26.66667 h -1.33333 l -17.46667,26.66667 h -12.8 l 24.13333,-34 -22.8,-31.33333 h 12.8 l 17.06667,25.2 h 1.33333 l 16.26667,-25.2 h 12.53333 l -22.53333,31.33333 z m -75.96876,0 h -10.66667 v -65.33333 h 10.66667 z m -29.89583,0 h -13.6 l -27.73334,-28 h 29.33334 v -28 h -34.66667 v 56 h -10.66667 v -46.8 l 9.33334,-9.2 h -9.33334 v -9.33333 h 46.66667 q 3.73334,0 6.53334,2.8 2.8,2.8 2.8,6.53333 v 25.33333 q 0,10.66667 -9.33334,10.66667 h -8 v 1.46667 z m -70.11459,-56 h -19.33334 v 56 h -10.66666 v -56 h -19.33334 v -9.33333 h 49.33334 z m -59.36459,46.66667 q 0,3.86667 -2.8,6.66667 -2.66666,2.66666 -6.53333,2.66666 h -37.33334 v -9.33333 h 36 v -18.66667 h -26.66666 q -3.86667,0 -6.66667,-2.66667 -2.66667,-2.8 -2.66667,-6.66666 v -18.66667 q 0,-3.86667 2.66667,-6.53333 2.8,-2.8 6.66667,-2.8 h 37.33333 v 9.33333 h -36 v 18.66667 h 26.66667 q 3.86667,0 6.53333,2.8 2.8,2.66666 2.8,6.53333 z"
         inkscape:connector-curvature="0" />
    </g>
  </g>
  <g
     inkscape:groupmode="layer"
     id="layer2"
     inkscape:label="text"
     style="display:inline"
     transform="translate(507.35623,-284.55336)" />
  <g
     inkscape:groupmode="layer"
     id="layer3"
     inkscape:label="owlEyes"
     transform="translate(507.35623,-284.55336)" />
</svg>
